<svg xmlns="http://www.w3.org/2000/svg" width="25.504" height="28.446" viewBox="0 0 22.504 25.446">
  <path id="Path_9808" data-name="Path 9808"
   d="M141.166,39.206a.28.28,0,0,0-.115.053l-4.81,3.678a.283.283,0,0,0-.115.23V53.936a4.805,4.805,0,1,0,5.075,5.075h11.619a.283.283,0,0,0,.283-.283V39.489a.283.283,0,0,0-.283-.283h-11.6a.265.265,0,0,0-.053,0Zm.336.566h11.035V58.445H141.219l-.018.009a4.8,4.8,0,0,0-4.509-4.518V43.45h4.527a.283.283,0,0,0,.283-.283v-3.4Zm-.566.283v2.829h-3.7l3.7-2.829Zm-1.468,5.375h0a.284.284,0,1,0,.053.566h10.186a.283.283,0,1,0,0-.566H139.521a.3.3,0,0,0-.053,0Zm0,3.4h0a.284.284,0,1,0,.053.566h10.186a.283.283,0,1,0,0-.566H139.521a.3.3,0,0,0-.053,0Zm0,3.4h0a.284.284,0,0,0,.053.566h10.186a.283.283,0,1,0,0-.566H139.521a.263.263,0,0,0-.053,0Zm-3.059,2.263a4.244,4.244,0,1,1-4.244,4.244A4.24,4.24,0,0,1,136.409,54.484Zm-.035,1.972a.283.283,0,0,0-.248.292v1.7h-1.7a.3.3,0,0,0-.053,0,.284.284,0,1,0,.053.566h1.7v1.7h0a.283.283,0,1,0,.566,0v-1.7h1.7a.283.283,0,1,0,0-.566h-1.7v-1.7a.283.283,0,0,0-.318-.292Z" transform="translate(-131.098 -38.592)" 
   fill="#da291c" stroke="#da291c" stroke-width="1.5"/>
</svg>
