<svg xmlns="http://www.w3.org/2000/svg" width="336" height="90.307" viewBox="0 0 236 53.307">
  <g id="logo" transform="translate(0 11)">
    <g id="Group_3" data-name="Group 3" transform="translate(0 -6.194)">
      <path id="Path_9" data-name="Path 9" d="M365.223,250.8l-1.791,1.244a13.994,13.994,0,0,1,.886,1.157l2.4,3.459,1.76-1.221-1.852-2.671c-.038-.056-.811-.933.06-1.539.546-.379,1,.035,1.331.476l1.9,2.735,1.762-1.222-2.162-3.116a1.984,1.984,0,0,0-2.908-.469,2.161,2.161,0,0,0-1,1.66Zm-2.957.872-.861-1.243-1.781,1.234.862,1.243Zm3.774,5.457-3.229-4.654L361.05,253.7l3.229,4.653ZM354,258.589l-1.743,1.211a13.8,13.8,0,0,1,.886,1.156l2.4,3.459,1.761-1.221-1.852-2.671c-.039-.057-.813-.933.058-1.538.547-.381,1,.034,1.334.476l1.9,2.737,1.764-1.224-1.854-2.671c-.036-.055-.812-.934.06-1.538.546-.379,1,.036,1.335.476l1.895,2.736,1.763-1.223-2.16-3.116a1.983,1.983,0,0,0-2.91-.468,2.332,2.332,0,0,0-1.032,2.035,1.777,1.777,0,0,0-2,.107,2.059,2.059,0,0,0-1.021,2.014l-.019.014Zm-8.8,6.109-1.744,1.211a13.364,13.364,0,0,1,.887,1.157l2.4,3.459L348.5,269.3l-1.853-2.673c-.04-.056-.811-.933.06-1.538.548-.378,1,.034,1.333.477l1.9,2.735,1.763-1.221-1.856-2.672c-.036-.056-.81-.933.062-1.539.547-.378,1,.034,1.331.476l1.9,2.738,1.761-1.223-2.161-3.116a1.983,1.983,0,0,0-2.908-.47,2.332,2.332,0,0,0-1.034,2.038,1.775,1.775,0,0,0-2,.107,2.056,2.056,0,0,0-1.02,2.014l-.019.013Zm-.678,7.365,1.792-1.241a13.845,13.845,0,0,1-.886-1.157l-2.4-3.459-1.763,1.223,1.854,2.669c.037.055.811.935-.062,1.539-.545.378-1-.034-1.331-.476l-1.9-2.735-1.761,1.222,2.162,3.115a1.982,1.982,0,0,0,2.908.469,2.163,2.163,0,0,0,1-1.659Zm26.52-25.389a1.03,1.03,0,0,0-.415.152c-.933.633-1.591,1.606-.793,2.757,1.172,1.687,3.584-.717,4.158.109.205.3.043.6-.3.838a.681.681,0,0,1-.567.076.621.621,0,0,1-.409-.334l-1.668,1.159c.976,1.424,2.249.886,3.389.094,1.065-.741,2.008-1.86,1.152-3.094a1.466,1.466,0,0,0-1.825-.63c-1.341.422-2.043.937-2.281.595a.463.463,0,0,1,.13-.708.736.736,0,0,1,.594-.168.471.471,0,0,1,.324.243l1.744-1.089h6.015v17.75H359.308c-2.94,0-7.279,1.34-7.279,6.468,0,4.889,4.419,6.232,7.279,6.232h20.978v17.984H357.2c-12.7,0-25.478-8.519-25.478-24.216,0-15.776,13.252-24.218,25.478-24.218h13.842Zm-34.648,21.278-2.306,1.6a4.006,4.006,0,0,0,4.566,6.582l2.305-1.6-1.3-1.882-2.179,1.512a1.722,1.722,0,0,1-1.962-2.828l2.177-1.513Zm46.193,25.758v-.55h.362c.192,0,.378.05.378.275,0,.269-.238.275-.48.275Zm0,.171h.331l.45.709h.23l-.475-.709a.432.432,0,0,0,.4-.445c0-.287-.159-.446-.519-.446h-.613v1.6h.2Zm.3-1.277a1.186,1.186,0,1,1-1.167,1.187A1.156,1.156,0,0,1,382.887,292.6Zm0-.2a1.383,1.383,0,1,0,1.384,1.383A1.364,1.364,0,0,0,382.887,292.408Z" transform="translate(-331.717 -246.674)" fill="#1a1818" fill-rule="evenodd"/>
    </g>
    <text id="CMP_Dashboard" data-name="CMP Dashboard" transform="translate(95 7)" fill="#da291c" font-size="18" font-family="HelveticaNeue-Bold, Helvetica Neue" font-weight="700"><tspan x="0" y="0">CMP Dashboard</tspan></text>
  </g>
</svg>
