<svg xmlns="http://www.w3.org/2000/svg" width="19.76" height="26" viewBox="0 0 19.76 26">
  <g id="Group_4913" data-name="Group 4913" transform="translate(-1136.893 -319)">
    <path id="Path_9845" data-name="Path 9845" d="M366.146,32.6v3.656a1.045,1.045,0,0,0,1.045,1.045h3.656" transform="translate(784.805 287.403)" fill="none" stroke="#da291c" stroke-width="2.5"/>
    <path id="Path_9846" data-name="Path 9846" d="M109.546,32.594H97.965a1.045,1.045,0,0,0-1.045,1.045V55.549a1.045,1.045,0,0,0,1.045,1.045h15.671a1.045,1.045,0,0,0,1.045-1.045V37.727a1.045,1.045,0,0,0-.306-.739L110.285,32.9a1.045,1.045,0,0,0-.739-.306Z"
     transform="translate(1040.973 287.406)" fill="none" stroke="#da291c" stroke-width="2.5"/>
    <path id="Path_9847" data-name="Path 9847" d="M279.994,226.149v8.1" transform="translate(866.779 103.239)" fill="none" stroke="#da291c" stroke-width="2.5"/>
    <path id="Path_9848" data-name="Path 9848" d="M226.7,336.639l-2.862,2.862-2.862-2.862" transform="translate(922.93 -1.891)" fill="none" stroke="#da291c" stroke-width="2.5"/>
  </g>
</svg>
