<svg xmlns="http://www.w3.org/2000/svg" width="30" height="30" viewBox="0 0 12.014 16.002">
  <g id="Group_4610" data-name="Group 4610" transform="translate(0 0)">
    <path id="Path_9404" data-name="Path 9404" d="M447.265,31.481h2.456a.971.971,0,0,0-.081-.1l-2.613-2.613a.964.964,0,0,0-.1-.08v2.456a.334.334,0,0,0,.334.334Z" transform="translate(-437.921 -28.478)" fill="#da291c"/>
    <path id="Path_9405" data-name="Path 9405" d="M165.5,25.476a1,1,0,0,1-1-1v-2.67h-7.342a1,1,0,0,0-1,1v14a1,1,0,0,0,1,1h10.011a1,1,0,0,0,1-1V25.476Zm.45,3.31-3.787,3.249-3.767-3.249Zm-8.126.388,2.726,2.35-2.726,2.784Zm.461,5.618,2.771-2.831.888.766a.334.334,0,0,0,.435,0l.674-.578,2.926,2.643Zm8.216-.429-2.936-2.652,2.936-2.519Z" transform="translate(-156.152 -21.805)" fill="#da291c"/>
  </g>
</svg>
