

<svg xmlns="http://www.w3.org/2000/svg" width="12" height="16" viewBox="0 0 12 16">
  <path id="file-excel" d="M7,4.25V0H.75A.748.748,0,0,0,0,.75v14.5A.748.748,0,0,0,.75,16h10.5a.748.748,0,0,0,.75-.75V5H7.75A.752.752,0,0,1,7,4.25ZM8.878,7.578,7,10.5l1.878,2.922A.376.376,0,0,1,8.562,14H7.472a.376.376,0,0,1-.331-.2C6.528,12.672,6,11.656,6,11.656c-.2.463-.313.625-1.144,2.15a.371.371,0,0,1-.328.2H3.437a.376.376,0,0,1-.316-.578L5.006,10.5,3.122,7.581A.375.375,0,0,1,3.437,7H4.525a.376.376,0,0,1,.331.2C5.672,8.725,5.481,8.25,6,9.341c0,0,.191-.366,1.144-2.141A.376.376,0,0,1,7.475,7H8.562a.373.373,0,0,1,.316.575ZM12,3.809V4H8V0h.191a.749.749,0,0,1,.531.219l3.059,3.062A.748.748,0,0,1,12,3.809Z" fill="#ffffff"/>
</svg>
