<svg xmlns="http://www.w3.org/2000/svg" xmlns:xlink="http://www.w3.org/1999/xlink" width="33" height="29" viewBox="0 0 28 32"><defs>
<style>.a{fill:rgba(0,0,0,0.87);}.b{clip-path:url(#a);}.c{fill:#cd2026;}.d{fill:rgba(0,0,0,0.6);}.e{fill:#039029;}.f{fill:#fff;font-size:8px;font-family:HelveticaNeue-Medium, Helvetica Neue;font-weight:500;}</style><clipPath id="a">
<rect class="a" width="28" height="32" transform="translate(447 461)"/></clipPath></defs>
<g transform="translate(-1321.5 -516)">
<g class="b" transform="translate(874.5 55)">
<g transform="translate(447 461)">
<g transform="translate(0 15)">
<path class="c" d="M70.851,181.894H69.516v1.991h1.335a1,1,0,0,0,0-1.991Z" transform="translate(-64.101 -177.492)"/><path class="c" d="M121.29,182.269h-1.327v3.582h1.327C123.449,185.851,123.544,182.269,121.29,182.269Z" transform="translate(-109.167 -177.827)"/>
<path class="c" d="M41.75,140.625h-22a1,1,0,0,0-1,1v10a1,1,0,0,0,1,1h22a1,1,0,0,0,1-1v-10A1,1,0,0,0,41.75,140.625ZM25.5,148.018H24.165v1.056a.5.5,0,0,1-.512.551.539.539,0,0,1-.543-.552v-4.5a.551.551,0,0,1,.543-.553H25.5a2,2,0,0,1,0,4Zm5.445,1.607h-1.9a.5.5,0,0,1-.552-.5v-4.541a.543.543,0,0,1,.552-.5h1.831C34.527,144.092,34.447,149.625,30.945,149.625Zm7.125-4.494H35.742V146.4h2.039a.618.618,0,0,1,.576.568.554.554,0,0,1-.576.479H35.742v1.679a.475.475,0,0,1-.479.5.509.509,0,0,1-.568-.5v-4.541a.506.506,0,0,1,.568-.5H38.07a.5.5,0,0,1,.559.5A.551.551,0,0,1,38.07,145.131Z" transform="translate(-18.75 -140.625)"/>
<path class="c" d="M41.75,140.625h-22a1,1,0,0,0-1,1v10a1,1,0,0,0,1,1h22a1,1,0,0,0,1-1v-10A1,1,0,0,0,41.75,140.625ZM25.5,148.018H24.165v1.056a.5.5,0,0,1-.512.551.539.539,0,0,1-.543-.552v-4.5a.551.551,0,0,1,.543-.553H25.5a2,2,0,0,1,0,4Zm5.445,1.607h-1.9a.5.5,0,0,1-.552-.5v-4.541a.543.543,0,0,1,.552-.5h1.831C34.527,144.092,34.447,149.625,30.945,149.625Zm7.125-4.494H35.742V146.4h2.039a.618.618,0,0,1,.576.568.554.554,0,0,1-.576.479H35.742v1.679a.475.475,0,0,1-.479.5.509.509,0,0,1-.568-.5v-4.541a.506.506,0,0,1,.568-.5H38.07a.5.5,0,0,1,.559.5A.551.551,0,0,1,38.07,145.131Z" transform="translate(-43.75 -93.625)"/></g>
<path class="d" d="M79.25,7.586,72.664,1A3.739,3.739,0,0,0,70.25,0h-11a3,3,0,0,0-3,3V13a1,1,0,0,0,2,0V3a1,1,0,0,1,1-1h9a2,2,0,0,1,2,2V7.75A2.257,2.257,0,0,0,72.5,10h3.75a2,2,0,0,1,2,2V29a1,1,0,0,1-1,1h-18a1,1,0,0,1-1-1,1,1,0,1,0-2,0,3,3,0,0,0,3,3h18a3,3,0,0,0,3-3V10A3.744,3.744,0,0,0,79.25,7.586Z" transform="translate(-52.25)"/>
</g>
</g>
<rect class="e" width="24" height="12" rx="1" transform="translate(1321.5 531)"/>
<text class="f" transform="translate(1341.5 540)"><tspan x="-14.96" y="0">XLS</tspan>
</text>
</g>
</svg>