<svg xmlns="http://www.w3.org/2000/svg" width="24.004" height="24" viewBox="0 0 24.004 24">
  <path id="ico-upload"
   d="M13.877,18.074H10.126A1.122,1.122,0,0,1,9,16.949V9.073H4.89a.936.936,0,0,1-.661-1.6L11.359.339a.908.908,0,0,1,1.28,0l7.135,7.135a.936.936,0,0,1-.661,1.6H15v7.876A1.122,1.122,0,0,1,13.877,18.074ZM24,17.7V22.95a1.122,1.122,0,0,1-1.125,1.125H1.125A1.122,1.122,0,0,1,0,22.95V17.7a1.122,1.122,0,0,1,1.125-1.125H7.5v.375a2.627,2.627,0,0,0,2.625,2.625h3.751A2.627,2.627,0,0,0,16.5,16.949v-.375h6.376A1.122,1.122,0,0,1,24,17.7ZM18.19,21.825a.938.938,0,1,0-.938.938A.94.94,0,0,0,18.19,21.825Zm3,0a.938.938,0,1,0-.938.938A.94.94,0,0,0,21.191,21.825Z"
    transform="translate(0 -0.075)" fill="#FFFF"/>
</svg>
