<svg xmlns="http://www.w3.org/2000/svg" width="25.488" height="28" viewBox="0 0 18.488 25">
  <g id="Group_4875" data-name="Group 4875" transform="translate(-1416.038 -25.504)">
    <path id="Path_9796" data-name="Path 9796" d="M192.985,63.559a5.774,5.774,0,0,0-5.767,5.767v4.866h-2.526a.451.451,0,0,0-.451.45V87.109a.451.451,0,0,0,.451.45h16.587a.451.451,0,0,0,.451-.45V74.646a.451.451,0,0,0-.451-.451h-2.526V69.329a5.774,5.774,0,0,0-5.767-5.77Zm-4.869,5.77a4.866,4.866,0,0,1,9.732,0V74.2h-9.732ZM200.825,75.1V86.658H185.142V75.1Z" transform="translate(1232.297 -37.555)" fill="#da291c" stroke="#da291c" stroke-width="2"/>
    <path id="Path_9797" data-name="Path 9797" d="M311.372,325.186v2.975a.488.488,0,0,0,.976,0v-2.975a2.181,2.181,0,1,0-.976,0Zm.488-3.329a1.208,1.208,0,1,1-.849.353,1.2,1.2,0,0,1,.849-.353Z" transform="translate(1113.451 -282.003)" fill="#da291c" stroke="#da291c" stroke-width="1"/>
  </g>
</svg>
