<svg xmlns="http://www.w3.org/2000/svg" width="50.771" height="40.318" viewBox="0 0 36.771 16.318">
  <path id="Path_9789" data-name="Path 9789" d="M76.719,172v-9.647a3.321,3.321,0,0,1,3.316-3.316H89.72a3.321,3.321,0,0,1,3.316,3.316v9.685a3.321,3.321,0,0,1-3.316,3.316H80.035A3.329,3.329,0,0,1,76.719,172Zm32.07-10.062a1.468,1.468,0,0,0-2.261.226,1.537,1.537,0,0,0,.226,1.884l1.62,1.62H97.784a1.471,1.471,0,0,0-1.47,1.47,1.5,1.5,0,0,0,1.47,1.47h10.589l-1.62,1.62a1.488,1.488,0,0,0-.226,1.884,1.468,1.468,0,0,0,2.261.226l4.334-4.334a1.206,1.206,0,0,0,0-1.734Z" transform="translate(-76.719 -159.039)" fill="#da291c"/>
</svg>
