
<svg xmlns="http://www.w3.org/2000/svg" width="33" height="30" viewBox="0 0 30 26">
  <path id="noun-publish-4038770" d="M105,91V73a3,3,0,0,1,3-3h22a3,3,0,0,1,3,3V91a3,3,0,0,1-3,3H108a3,3,0,0,1-3-3Zm26-13H107V91a1,1,0,0,0,1,1h22a1,1,0,0,0,1-1Zm-13,6.413-.414.414a1,1,0,1,1-1.414-1.414l2.121-2.121a1,1,0,0,1,1.414,0l2.121,2.121a1,1,0,0,1-1.414,1.414L120,84.414V88a1,1,0,0,1-2,0ZM131,76V73a1,1,0,0,0-1-1H108a1,1,0,0,0-1,1v3Zm-6-3a1,1,0,1,0,1,1A1,1,0,0,0,125,73Zm3,2h1a1,1,0,0,0,0-2h-1a1,1,0,0,0,0,2Z" 
  transform="translate(-105 -70)" fill="#da291c" fill-rule="evenodd" 
  stroke="#da291c"  stroke-width="1"/>
</svg>
