

 <svg xmlns="http://www.w3.org/2000/svg" width="25.004" height="28.004" viewBox="0 0 25.004 25.004">
  <g id="Group_4876" data-name="Group 4876" transform="translate(4044.524 3443.5)">
    <path id="Path_9798" data-name="Path 9798" d="M87.232,143.433v18.476A1.087,1.087,0,0,1,86.144,163H64.316a1.087,1.087,0,0,1-1.088-1.088V143.433Zm0,0" transform="translate(-4107.251 -3581.992)" fill="none" stroke="#da291c" stroke-linecap="round" stroke-linejoin="round" stroke-width="3"/>
    <path id="Path_9799" data-name="Path 9799" d="M87.23,64.315v3.353h-24V64.315a1.087,1.087,0,0,1,1.088-1.088H86.142a1.087,1.087,0,0,1,1.088,1.088Zm0,0" transform="translate(-4107.25 -3506.227)" fill="none" stroke="#da291c" stroke-linecap="round" stroke-linejoin="round" stroke-width="3"/>
    <path id="Path_9800" data-name="Path 9800" d="M211.058,103.33h13.736" transform="translate(-4246.897 -3544.109)" fill="none" stroke="#da291c" stroke-linecap="round" stroke-linejoin="round" stroke-width="3"/>
    <path id="Path_9801" data-name="Path 9801" d="M100.864,103.33h0" transform="translate(-4142.804 -3544.109)" fill="none" stroke="#da291c" stroke-linecap="round" stroke-linejoin="round" stroke-width="3"/>
    <path id="Path_9802" data-name="Path 9802" d="M146.025,103.33h0" transform="translate(-4185.465 -3544.109)" fill="none" stroke="#da291c" stroke-linecap="round" stroke-linejoin="round" stroke-width="3"/>
    <path id="Path_9803" data-name="Path 9803" d="M214.13,282.1l4.974-2.563v.74l-4.191,2.1v.021l4.191,2.1v.739l-4.974-2.562Z" transform="translate(-4253.674 -3710.559)" fill="#da291c"/>
    <path id="Path_9804" data-name="Path 9804" d="M316.61,257.692l2.991-7.772h.729l-3,7.772Z" transform="translate(-4350.481 -3682.583)" fill="#da291c"/>
    <path id="Path_9805" data-name="Path 9805" d="M401.008,282.7l-4.974,2.551v-.739l4.224-2.1v-.021l-4.224-2.1v-.74l4.974,2.551Z" transform="translate(-4425.507 -3710.571)" fill="#da291c"/>
  </g>
</svg> 
