<svg xmlns="http://www.w3.org/2000/svg" width="14" height="14" viewBox="0 0 14 14"
 fill="#FFFF">
  <path id="noun-unpin-1919211" 
  d="M199.454,69.936l-1.217,1.217-1.244-1.244-3.082,4.223.673.673h0a.862.862,0,0,1,0,1.217l-.609.609-6.087-6.087.609-.609a.862.862,0,0,1,1.217,0l.673.673,4.223-3.082-1.244-1.244,1.217-1.217,4.869,4.869m1.217,0-6.087-6.087-2.435,2.435,1.141,1.141-2.815,2.054-.152-.152a1.722,1.722,0,0,0-2.435,0l-1.217,1.217,3.044,3.044-3.044,3.044v1.217h1.217l3.044-3.044,3.044,3.044,1.217-1.217h0a1.722,1.722,0,0,0,0-2.435l-.152-.152,2.054-2.815,1.141,1.141,2.435-2.435Z"
   transform="translate(-186.671 -63.849)"
   fill="#FFFF"/>
</svg>
